name C:\Users\u0101727\Documents\MyRepositories\upper-imu-dc\Results\main_tracking\Case_67\kinematics.mot
datacolumns 10
datarows 23
range 5.00000000 5.22000000
endheader 
time	clav_prot	clav_elev	scapula_abduction	scapula_elevation	scapula_upward_rot	scapula_winging	plane_elv	shoulder_elv	axial_rot	
          5.00000000	        -23.76012925	          2.22078863	         -0.70886704	         -4.13187685	         35.89371832	         -2.01184237	         68.73176547	         46.20544139	        -22.87059311	
          5.01000000	        -23.69979245	          2.00513776	         -0.98461185	         -4.19275602	         35.31662970	         -1.83444045	         68.49328513	         45.80476788	        -22.67268308	
          5.02000000	        -23.64311512	          1.78522891	         -1.25817533	         -4.25655934	         34.74665418	         -1.65537725	         68.24270232	         45.40893974	        -22.48188284	
          5.03000000	        -23.58941936	          1.56158326	         -1.52856472	         -4.32296153	         34.18380833	         -1.47483191	         67.97983861	         45.01771610	        -22.29821770	
          5.04000000	        -23.53800768	          1.33480330	         -1.79476369	         -4.39157801	         33.62813179	         -1.29302010	         67.70442767	         44.63077957	        -22.12152689	
          5.05000000	        -23.48816825	          1.10559411	         -2.05576008	         -4.46194659	         33.07966994	         -1.11019860	         67.41619679	         44.24774802	        -21.95141490	
          5.06000000	        -23.43923091	          0.87471894	         -2.31064159	         -4.53355983	         32.53845841	         -0.92665144	         67.11492026	         43.86818586	        -21.78718096	
          5.07000000	        -23.39062226	          0.64295148	         -2.55868287	         -4.60590106	         32.00451506	         -0.74267497	         66.80046805	         43.49160565	        -21.62772188	
          5.08000000	        -23.34188234	          0.41107138	         -2.79937501	         -4.67844744	         31.47783545	         -0.55857464	         66.47286507	         43.11746753	        -21.47143306	
          5.09000000	        -23.29265702	          0.17987794	         -3.03241844	         -4.75065814	         30.95838700	         -0.37466682	         66.13232970	         42.74518229	        -21.31614957	
          5.10000000	        -23.24269001	         -0.04981427	         -3.25771062	         -4.82197527	         30.44610244	         -0.19127520	         65.77926215	         42.37411654	        -21.15916027	
          5.11000000	        -23.19181854	         -0.27720008	         -3.47533349	         -4.89184038	         29.94087472	         -0.00872100	         65.41419029	         42.00359904	        -20.99730045	
          5.12000000	        -23.13997056	         -0.50151898	         -3.68554026	         -4.95971884	         29.44255297	          0.17269055	         65.03769733	         41.63293088	        -20.82710093	
          5.13000000	        -23.08716051	         -0.72208945	         -3.88874055	         -5.02512394	         28.95093829	          0.35268440	         64.65035572	         41.26140251	        -20.64495810	
          5.14000000	        -23.03348063	         -0.93833460	         -4.08547996	         -5.08763442	         28.46578042	          0.53102756	         64.25268219	         40.88831699	        -20.44729394	
          5.15000000	        -22.97908755	         -1.14979803	         -4.27641279	         -5.14690536	         27.98677673	          0.70753759	         63.84511400	         40.51301557	        -20.23069190	
          5.16000000	        -22.92418454	         -1.35615281	         -4.46226787	         -5.20267417	         27.51357352	          0.88208821	         63.42799554	         40.13490230	        -19.99201083	
          5.17000000	        -22.86899921	         -1.55720651	         -4.64380584	         -5.25476401	         27.04576972	          1.05461260	         63.00156283	         39.75346527	        -19.72848802	
          5.18000000	        -22.81375638	         -1.75290426	         -4.82176618	         -5.30308638	         26.58292451	          1.22510454	         62.56591764	         39.36829249	        -19.43783897	
          5.19000000	        -22.75864771	         -1.94333019	         -4.99680511	         -5.34764361	         26.12457092	          1.39361674	         62.12099201	         38.97908184	        -19.11835563	
          5.20000000	        -22.70380123	         -2.12870452	         -5.16943121	         -5.38852937	         25.67023436	          1.56025588	         61.66651407	         38.58564622	        -18.76900039	
          5.21000000	        -22.64925566	         -2.30937296	         -5.33995055	         -5.42592434	         25.21945315	          1.72517381	         61.20199132	         38.18791650	        -18.38948689	
          5.22000000	        -22.59494424	         -2.48578605	         -5.50843174	         -5.46008497	         24.77179831	          1.88855510	         60.72672497	         37.78594194	        -17.98032977	
